<?xml version="1.0" encoding="utf-8"?>
<!-- Generator: Adobe Illustrator 18.1.1, SVG Export Plug-In . SVG Version: 6.00 Build 0)  -->
<svg version="1.1"  xmlns="http://www.w3.org/2000/svg" xmlns:xlink="http://www.w3.org/1999/xlink" x="0px" y="0px"
	 viewBox="0 0 48 48" enable-background="new 0 0 48 48" xml:space="preserve">
<g>
	<path fill="#FFA000" d="M40,12H22l-4-4H8c-2.2,0-4,1.8-4,4v8h40v-4C44,13.8,42.2,12,40,12z"/>
</g>
<g>
	<path fill="#FFCA28" d="M40,12H8c-2.2,0-4,1.8-4,4v20c0,2.2,1.8,4,4,4h32c2.2,0,4-1.8,4-4V16C44,13.8,42.2,12,40,12z"/>
</g>
<rect x="15" y="15" fill="#FFE082" width="18" height="22"/>
<path fill="#FF9800" d="M24,33c-2.4,0-2.5-3.5-2.5-3.5v-3h5v3C26.5,29.5,26.4,33,24,33z"/>
<g>
	<circle fill="#FFA726" cx="28.5" cy="23.5" r="1"/>
	<circle fill="#FFA726" cx="19.5" cy="23.5" r="1"/>
</g>
<path fill="#FFB74D" d="M28.5,20.5c0-3.8-9-2.5-9,0c0,0.5,0,3,0,3.5c0,2.5,2,4.5,4.5,4.5s4.5-2,4.5-4.5C28.5,23.5,28.5,21,28.5,20.5
	z"/>
<path fill="#424242" d="M24,16c-3,0-5,2.5-5,5.5c0,0.4,0,1.1,0,1.1l1,0.9V21l6-2l2,2v2.5l1-0.9c0,0,0-0.7,0-1.1c0-2-0.5-4-3-4.5
	l-0.5-1H24z"/>
<g>
	<circle fill="#784719" cx="26" cy="23.5" r="0.5"/>
	<circle fill="#784719" cx="22" cy="23.5" r="0.5"/>
</g>
<g>
	<path fill="#009688" d="M26.5,29.5L26.5,29.5c0,0-0.9,1-2.5,1c-1.6,0-2.5-1-2.5-1S16,30.5,16,36h16C32,30.5,26.5,29.5,26.5,29.5z"
		/>
</g>
</svg>
