<?xml version="1.0"?>
<svg xmlns="http://www.w3.org/2000/svg" xmlns:xlink="http://www.w3.org/1999/xlink" xmlns:svgjs="http://svgjs.com/svgjs" version="1.1" width="512" height="512" x="0" y="0" viewBox="0 0 511.999 511.999" style="enable-background:new 0 0 512 512" xml:space="preserve" class=""><g>
<rect xmlns="http://www.w3.org/2000/svg" x="124.328" y="381.14" style="" width="38.483" height="123.36" fill="#1e608b" data-original="#1e608b"/>
<rect xmlns="http://www.w3.org/2000/svg" x="143.568" y="381.14" style="" width="19.242" height="123.36" fill="#135370" data-original="#135370"/>
<rect xmlns="http://www.w3.org/2000/svg" x="347.208" y="381.14" style="" width="38.483" height="123.36" fill="#1e608b" data-original="#1e608b"/>
<rect xmlns="http://www.w3.org/2000/svg" x="366.448" y="381.14" style="" width="19.242" height="123.36" fill="#135370" data-original="#135370"/>
<path xmlns="http://www.w3.org/2000/svg" style="" d="M410.394,417.54H99.627c-7.761,0-14.052-6.291-14.052-14.052v-50.834h338.872v50.834  C424.447,411.249,418.155,417.54,410.394,417.54z" fill="#1e608b" data-original="#1e608b"/>
<path xmlns="http://www.w3.org/2000/svg" style="" d="M414.508,381.136H95.514V61.843c0-30.01,24.328-54.339,54.339-54.339h210.316  c30.01,0,54.339,24.328,54.339,54.339L414.508,381.136L414.508,381.136z" fill="#ef4a50" data-original="#ef4a50" class=""/>
<path xmlns="http://www.w3.org/2000/svg" style="" d="M360.169,7.504h-52.64c30.011,0,54.339,24.328,54.339,54.339v319.293h52.64V61.843  C414.508,31.833,390.179,7.504,360.169,7.504z" fill="#dd3753" data-original="#dd3753" class=""/>
<path xmlns="http://www.w3.org/2000/svg" style="" d="M136.246,381.136H80.639c-12.07,0-21.855-9.785-21.855-21.855V244.837h77.462V381.136z" fill="#ef4a50" data-original="#ef4a50" class=""/>
<rect xmlns="http://www.w3.org/2000/svg" x="97.518" y="244.84" style="" width="38.731" height="136.3" fill="#dd3753" data-original="#dd3753" class=""/>
<path xmlns="http://www.w3.org/2000/svg" style="" d="M429.383,381.136h-55.607V244.837h77.462v114.444C451.237,371.352,441.453,381.136,429.383,381.136z" fill="#ef4a50" data-original="#ef4a50" class=""/>
<g xmlns="http://www.w3.org/2000/svg">
	<path style="" d="M412.506,244.837v114.444c0,12.07-9.785,21.855-21.855,21.855h38.731   c12.07,0,21.855-9.785,21.855-21.855V244.837H412.506z" fill="#dd3753" data-original="#dd3753" class=""/>
	<path style="" d="M373.776,381.136h-237.53V328.38c0-17.531,14.212-31.743,31.743-31.743h174.043   c17.531,0,31.743,14.212,31.743,31.743v52.756H373.776z" fill="#dd3753" data-original="#dd3753" class=""/>
</g>
<path xmlns="http://www.w3.org/2000/svg" style="" d="M147.168,256H47.862c-4.352,0-7.88-3.528-7.88-7.88v-20.316c0-4.352,3.528-7.88,7.88-7.88h99.306  c4.352,0,7.88,3.528,7.88,7.88v20.316C155.048,252.472,151.52,256,147.168,256z" fill="#ef4a50" data-original="#ef4a50" class=""/>
<path xmlns="http://www.w3.org/2000/svg" style="" d="M147.168,237.962H47.862c-4.352,0-7.88-3.528-7.88-7.88v18.038c0,4.352,3.528,7.88,7.88,7.88h99.306  c4.352,0,7.88-3.528,7.88-7.88v-18.038C155.048,234.434,151.52,237.962,147.168,237.962z" fill="#dd3753" data-original="#dd3753" class=""/>
<path xmlns="http://www.w3.org/2000/svg" style="" d="M464.134,256.074h-99.306c-4.352,0-7.88-3.528-7.88-7.88v-20.316c0-4.352,3.528-7.88,7.88-7.88  h99.306c4.352,0,7.88,3.528,7.88,7.88v20.316C472.014,252.546,468.486,256.074,464.134,256.074z" fill="#ef4a50" data-original="#ef4a50" class=""/>
<path xmlns="http://www.w3.org/2000/svg" style="" d="M464.134,238.036h-99.306c-4.352,0-7.88-3.528-7.88-7.88v18.038c0,4.352,3.528,7.88,7.88,7.88h99.306  c4.352,0,7.88-3.528,7.88-7.88v-18.038C472.014,234.508,468.486,238.036,464.134,238.036z" fill="#dd3753" data-original="#dd3753" class=""/>
<path xmlns="http://www.w3.org/2000/svg" style="" d="M342.032,296.636H167.989c-15.847,0-28.98,11.614-31.357,26.794  c27.642,9.404,70.828,15.456,119.366,15.456c47.447,0,89.778-5.784,117.477-14.828C371.366,308.573,358.097,296.636,342.032,296.636  z" fill="#ef5460" data-original="#ef5460"/>
<path xmlns="http://www.w3.org/2000/svg" d="M202.371,91.704h-6.907v-6.907c0-4.144-3.359-7.504-7.504-7.504s-7.504,3.36-7.504,7.504v6.907h-6.907  c-4.145,0-7.504,3.36-7.504,7.504s3.359,7.504,7.504,7.504h6.907v6.908c0,4.144,3.359,7.504,7.504,7.504s7.504-3.36,7.504-7.504  v-6.908h6.907c4.145,0,7.504-3.36,7.504-7.504S206.516,91.704,202.371,91.704z" fill="#000000" data-original="#000000" style="" class=""/>
<path xmlns="http://www.w3.org/2000/svg" d="M309.625,106.712h6.907v6.908c0,4.144,3.359,7.504,7.504,7.504s7.504-3.36,7.504-7.504v-6.908h6.907  c4.145,0,7.504-3.36,7.504-7.504s-3.359-7.504-7.504-7.504h-6.907v-6.907c0-4.144-3.359-7.504-7.504-7.504s-7.504,3.36-7.504,7.504  v6.907h-6.907c-4.145,0-7.504,3.36-7.504,7.504S305.48,106.712,309.625,106.712z" fill="#000000" data-original="#000000" style="" class=""/>
<path xmlns="http://www.w3.org/2000/svg" d="M202.371,194.778h-6.907v-6.907c0-4.144-3.359-7.504-7.504-7.504s-7.504,3.36-7.504,7.504v6.907h-6.907  c-4.145,0-7.504,3.36-7.504,7.504s3.359,7.504,7.504,7.504h6.907v6.907c0,4.144,3.359,7.504,7.504,7.504s7.504-3.36,7.504-7.504  v-6.907h6.907c4.145,0,7.504-3.36,7.504-7.504S206.516,194.778,202.371,194.778z" fill="#000000" data-original="#000000" style="" class=""/>
<path xmlns="http://www.w3.org/2000/svg" d="M338.448,194.778h-6.907v-6.907c0-4.144-3.359-7.504-7.504-7.504s-7.504,3.36-7.504,7.504v6.907h-6.907  c-4.145,0-7.504,3.36-7.504,7.504s3.359,7.504,7.504,7.504h6.907v6.907c0,4.144,3.359,7.504,7.504,7.504s7.504-3.36,7.504-7.504  v-6.907h6.907c4.145,0,7.504-3.36,7.504-7.504S342.593,194.778,338.448,194.778z" fill="#000000" data-original="#000000" style="" class=""/>
<path xmlns="http://www.w3.org/2000/svg" d="M464.133,212.493h-99.305c-8.483,0-15.385,6.901-15.385,15.384v20.316c0,8.483,6.901,15.384,15.385,15.384h1.443v33.968  c-6.68-5.262-15.096-8.414-24.239-8.414H167.989c-9.143,0-17.559,3.151-24.238,8.414v-34.041h3.417  c8.483,0,15.385-6.901,15.385-15.384v-20.316c0-8.483-6.901-15.384-15.385-15.384H47.863c-8.483,0-15.385,6.901-15.385,15.384  v20.316c0,8.483,6.901,15.384,15.385,15.384h3.417v95.777c0,15.322,11.801,27.933,26.791,29.24v14.967  c0,11.886,9.671,21.556,21.557,21.556h17.196v71.947H106.08c-4.145,0-7.504,3.36-7.504,7.504s3.359,7.504,7.504,7.504h74.98  c4.145,0,7.504-3.36,7.504-7.504s-3.359-7.504-7.504-7.504h-10.744v-71.947h169.391v71.947h-10.744c-4.145,0-7.504,3.36-7.504,7.504  s3.359,7.504,7.504,7.504h74.981c4.145,0,7.504-3.36,7.504-7.504s-3.359-7.504-7.504-7.504h-10.745v-71.947h17.197  c11.886,0,21.556-9.67,21.556-21.556v-14.967c14.99-1.306,26.791-13.918,26.791-29.24v-95.704h5.392  c8.483,0,15.385-6.901,15.385-15.384v-20.316C479.518,219.395,472.617,212.493,464.133,212.493z M167.989,304.141h174.044  c13.366,0,24.239,10.873,24.239,24.239v45.252H143.75V328.38C143.75,315.014,154.624,304.141,167.989,304.141z M58.784,248.496  H47.863c-0.207,0-0.376-0.169-0.376-0.376v-20.316c0-0.207,0.169-0.376,0.376-0.376h99.305c0.207,0,0.376,0.169,0.376,0.376v20.316  c0,0.207-0.169,0.376-0.376,0.376h-10.921H58.784z M80.639,373.632c-7.913,0-14.351-6.438-14.351-14.35v-95.777h62.454v64.875  v45.252H85.575L80.639,373.632L80.639,373.632z M155.307,496.991h-23.474v-71.946h23.474V496.991z M378.189,496.991h-23.474v-71.946  h23.474V496.991z M416.942,403.488c0,3.61-2.937,6.548-6.548,6.548h-24.702h-38.483H162.811h-38.483h-24.7  c-3.611,0-6.549-2.937-6.549-6.548V388.64h43.167h237.53h43.166L416.942,403.488L416.942,403.488z M443.733,359.282  c0,7.913-6.438,14.35-14.351,14.35h-4.935h-43.166V328.38v-64.802h62.453L443.733,359.282L443.733,359.282z M464.51,248.194  c0,0.207-0.169,0.376-0.376,0.376h-12.896h-77.461h-8.947c-0.207,0-0.376-0.169-0.376-0.376v-20.316  c0-0.207,0.169-0.376,0.376-0.376h99.305c0.207,0,0.376,0.169,0.376,0.376v20.316H464.51z" fill="#000000" data-original="#000000" style="" class=""/>
<path xmlns="http://www.w3.org/2000/svg" d="M95.514,192.328c4.145,0,7.504-3.36,7.504-7.504V61.843c0-25.825,21.01-46.835,46.834-46.835h210.316  c25.824,0,46.834,21.01,46.834,46.87l0.581,122.981c0.02,4.132,3.375,7.469,7.503,7.469c0.012,0,0.024,0,0.036,0  c4.145-0.02,7.489-3.395,7.469-7.54L422.01,61.843C422.012,27.743,394.269,0,360.169,0H149.852  c-34.101,0-61.843,27.743-61.843,61.843v122.981C88.01,188.969,91.369,192.328,95.514,192.328z" fill="#000000" data-original="#000000" style="" class=""/>
<g xmlns="http://www.w3.org/2000/svg">
</g>
<g xmlns="http://www.w3.org/2000/svg">
</g>
<g xmlns="http://www.w3.org/2000/svg">
</g>
<g xmlns="http://www.w3.org/2000/svg">
</g>
<g xmlns="http://www.w3.org/2000/svg">
</g>
<g xmlns="http://www.w3.org/2000/svg">
</g>
<g xmlns="http://www.w3.org/2000/svg">
</g>
<g xmlns="http://www.w3.org/2000/svg">
</g>
<g xmlns="http://www.w3.org/2000/svg">
</g>
<g xmlns="http://www.w3.org/2000/svg">
</g>
<g xmlns="http://www.w3.org/2000/svg">
</g>
<g xmlns="http://www.w3.org/2000/svg">
</g>
<g xmlns="http://www.w3.org/2000/svg">
</g>
<g xmlns="http://www.w3.org/2000/svg">
</g>
<g xmlns="http://www.w3.org/2000/svg">
</g>
</g></svg>
