<svg id="Capa_1" enable-background="new 0 0 510 510" height="512" viewBox="0 0 510 510" width="512" xmlns="http://www.w3.org/2000/svg"><g><path id="XMLID_1773_" d="m0 60v135l132.5 10 122.5-10 10-67.5-10-67.5c-11.193 0-243.799 0-255 0z" fill="#ff835d"/><path id="XMLID_1771_" d="m510 60c-11.203 0-243.808 0-255 0v135l132.333 10 122.667-10z" fill="#fb5858"/><path id="XMLID_1769_" d="m0 195v315h255l10-157.5-10-157.5z" fill="#fff5f5"/><path id="XMLID_1767_" d="m255 195h255v315h-255z" fill="#ece6f2"/><path id="XMLID_1766_" d="m75 0h60v120h-60z" fill="#4d628c"/><path id="XMLID_1765_" d="m375 0h60v120h-60z" fill="#283d66"/><path id="XMLID_1763_" d="m405 450.213-40.606-40.607 21.212-21.212 19.394 19.393 38.894-38.893 21.212 21.212z" fill="#ff835d"/><g fill="#ffe278"><path id="XMLID_1760_" d="m75 240h45v30h-45z"/><path id="XMLID_1758_" d="m75 300h45v30h-45z"/><path id="XMLID_1755_" d="m75 360h45v30h-45z"/><path id="XMLID_1752_" d="m75 420h45v30h-45z"/><path id="XMLID_1750_" d="m180 420h45v30h-45z"/><path id="XMLID_1748_" d="m180 360h45v30h-45z"/><path id="XMLID_1746_" d="m180 300h45v30h-45z"/><path id="XMLID_1744_" d="m180 240h45v30h-45z"/></g><path id="XMLID_1742_" d="m285 240h45v30h-45z" fill="#ffc178"/><path id="XMLID_1740_" d="m285 300h45v30h-45z" fill="#ffc178"/><path id="XMLID_1734_" d="m285 360h45v30h-45z" fill="#ffc178"/><path id="XMLID_1729_" d="m285 420h45v30h-45z" fill="#ffc178"/><path id="XMLID_1727_" d="m390 240h45v30h-45z" fill="#ffc178"/><path id="XMLID_1725_" d="m390 300h45v30h-45z" fill="#ffc178"/></g></svg>